<?xml version="1.0" encoding="UTF-8" standalone="no"?><!DOCTYPE svg PUBLIC "-//W3C//DTD SVG 1.1//EN" "http://www.w3.org/Graphics/SVG/1.1/DTD/svg11.dtd"><svg width="100%" height="100%" viewBox="0 0 3840 2160" version="1.1" xmlns="http://www.w3.org/2000/svg" xmlns:xlink="http://www.w3.org/1999/xlink" xml:space="preserve" style="fill-rule:evenodd;clip-rule:evenodd;stroke-linecap:round;stroke-linejoin:round;stroke-miterlimit:1.5;"><g id="graphic"><clipPath id="_clip1"><rect x="-2.358" y="528.485" width="3843.38" height="1510.13"/></clipPath><g clip-path="url(#_clip1)"><path d="M-56.03,1235.58c111.532,-1.297 238.627,-102.453 343.674,-90.782c105.048,11.672 154.33,83.001 294.393,124.501c140.064,41.501 333.473,9.643 464.544,149.09c120.143,127.821 67.957,175.91 248.224,275.77c180.267,99.86 315.095,51.426 500.296,107.932c190.645,58.166 286.134,135.104 476.776,109.166c190.642,-25.938 268.6,-177.972 360.202,-258.453c91.612,-80.49 246.74,-80.034 325.85,-179.894c79.11,-99.86 138.767,-365.721 249.002,-474.659c110.235,-108.939 187.042,-118.017 328.402,-212.689c141.361,-94.673 128.319,-256.866 316.202,-257.074" style="fill:none;stroke:#00ff0b;stroke-opacity:0.2;stroke-width:4.29px;"/><path d="M-1629.01,2038.62c996.779,-965.487 1750.44,-952.216 2325.82,-776.371c575.376,175.845 1126.44,955.533 1888.21,474.449c761.767,-481.085 751.394,-1438.87 1758.55,-952.216" style="fill:none;stroke:#00ff0b;stroke-width:4.29px;"/><path d="M-326.458,1108.73c0,0 69.708,-38.907 293.42,-4.863c223.713,34.043 268.633,116.927 433.043,150.464c146.606,29.905 346.493,-17.14 467.55,47.588c123.506,66.037 63.732,94.306 237.402,211.343c124.416,83.845 245.71,56.773 424.385,167.536c152.368,94.455 167.871,202.378 278.093,206.386c178.322,6.485 259.588,-42.141 461.51,-69.759c217.026,-29.684 420.855,-61.186 497.482,-150.704c99.412,-116.137 111.392,-255.817 239.459,-404.959c128.067,-149.141 286.396,-158.19 408.472,-312.258c120.612,-152.221 119.78,-240.573 214.703,-303.829c302.602,-201.651 504.805,304.951 555.06,257.939" style="fill:none;stroke:#00ff0b;stroke-opacity:0.2;stroke-width:4.29px;"/></g></g></svg>