<?xml version="1.0" encoding="UTF-8" standalone="no"?>
<!DOCTYPE svg PUBLIC "-//W3C//DTD SVG 1.1//EN" "http://www.w3.org/Graphics/SVG/1.1/DTD/svg11.dtd">
<svg width="100%" height="100%" viewBox="0 0 3840 2160" version="1.1" xmlns="http://www.w3.org/2000/svg" xmlns:xlink="http://www.w3.org/1999/xlink" xml:space="preserve" style="fill-rule:evenodd;clip-rule:evenodd;stroke-linecap:round;stroke-linejoin:round;stroke-miterlimit:1.5;">
    <g id="graphic">
        <clipPath id="_clip1">
            <rect x="-0.044" y="554.423" width="3842.78" height="1484.19"/>
        </clipPath>
        <g clip-path="url(#_clip1)">
            <path d="M-56.03,1235.58C55.502,1234.28 182.597,1133.12 287.644,1144.8C392.692,1156.47 441.974,1227.8 582.037,1269.3C722.101,1310.8 918.514,1264.28 1069.53,1381.84C1211.35,1492.24 1124.04,1578.79 1294.81,1694.16C1459.51,1805.43 1599.55,1797.39 1799.25,1835.29C1996.1,1872.65 2112.66,1962.76 2292.63,1884.28C2462.08,1810.38 2493.79,1575.58 2598.88,1500.29C2698.01,1429.26 2891.36,1424.42 2985.94,1339.07C3081.65,1252.7 3124.9,1003.91 3243.24,903.834C3365.93,800.084 3431.71,909.576 3587.21,840.546C3751.39,767.662 3830.69,554.63 4018.57,554.423" style="fill:none;stroke:rgb(0,255,11);stroke-opacity:0.35;stroke-width:4.29px;"/>
            <g transform="matrix(1.32748,0,0,0.543483,-908.384,716.862)">
                <path d="M-542.852,2432.01C208.031,655.527 775.771,679.946 1209.21,1003.5C1582.7,1282.3 1764.43,2385.37 2286.24,2122.32C2827.72,1849.36 3197.64,-771.012 3956.34,124.415" style="fill:none;stroke:rgb(0,255,11);stroke-width:4.23px;"/>
            </g>
            <path d="M-326.458,1108.73C-326.458,1108.73 -256.75,1069.82 -33.038,1103.86C190.675,1137.91 235.595,1220.79 400.005,1254.33C546.611,1284.23 746.498,1237.19 867.555,1301.91C991.061,1367.95 931.287,1396.22 1104.96,1513.26C1229.37,1597.1 1306.06,1597.01 1484.73,1707.77C1637.1,1802.22 1714.85,1943.35 1825.07,1947.36C1920.95,1950.84 2106.95,1832.55 2278.17,1760C2487.43,1671.34 2676.54,1634.77 2760.2,1564C2876.32,1465.79 2876.78,1256.31 3017.3,1125.85C3161.36,992.088 3240.41,1073.48 3414.36,949.5C3572.51,836.779 3558,676.764 3734.89,616.621C4079.17,499.562 4133.87,950.622 4184.12,903.61" style="fill:none;stroke:rgb(0,255,11);stroke-opacity:0.2;stroke-width:4.29px;"/>
        </g>
    </g>
</svg>
