<?xml version="1.0" encoding="UTF-8" standalone="no"?>
<!DOCTYPE svg PUBLIC "-//W3C//DTD SVG 1.1//EN" "http://www.w3.org/Graphics/SVG/1.1/DTD/svg11.dtd">
<svg width="100%" height="100%" viewBox="0 0 200 200" version="1.1" xmlns="http://www.w3.org/2000/svg" xmlns:xlink="http://www.w3.org/1999/xlink" xml:space="preserve" style="fill-rule:evenodd;clip-rule:evenodd;stroke-linejoin:round;stroke-miterlimit:1.41421;">
    <g transform="matrix(0.0797146,0,0,0.0709869,-59.128,25.293)">
        <path d="M2197.72,-244.243L2204.87,-244.192L2212,-244.108L2219.12,-243.993L2226.22,-243.845L2233.31,-243.666L2240.37,-243.454L2247.42,-243.21L2254.45,-242.933L2261.46,-242.623L2268.45,-242.281L2275.43,-241.905L2282.38,-241.497L2289.31,-241.056L2296.21,-240.581L2303.1,-240.073L2309.97,-239.531L2316.81,-238.956L2323.63,-238.346L2330.42,-237.703L2337.19,-237.026L2343.93,-236.314L2350.65,-235.568L2357.35,-234.787L2364.01,-233.972L2370.66,-233.121L2377.27,-232.236L2383.85,-231.315L2390.41,-230.358L2396.94,-229.366L2403.44,-228.338L2409.91,-227.274L2416.35,-226.174L2422.76,-225.037L2429.14,-223.863L2435.49,-222.653L2441.81,-221.405L2448.1,-220.119L2454.35,-218.796L2460.57,-217.435L2466.75,-216.036L2472.85,-214.612L2475.97,-213.865L2479.03,-213.121L2482.07,-212.368L2485.11,-211.605L2488.14,-210.833L2491.16,-210.05L2494.17,-209.257L2497.17,-208.455L2500.17,-207.642L2503.15,-206.819L2506.13,-205.986L2509.09,-205.143L2512.05,-204.29L2515,-203.426L2517.94,-202.552L2520.87,-201.668L2523.79,-200.773L2526.7,-199.868L2529.6,-198.953L2532.49,-198.026L2535.38,-197.089L2538.25,-196.141L2541.11,-195.183L2543.97,-194.214L2546.81,-193.233L2549.64,-192.243L2552.47,-191.241L2555.28,-190.227L2558.09,-189.203L2560.89,-188.168L2563.67,-187.12L2566.45,-186.062L2569.21,-184.993L2571.97,-183.912L2574.71,-182.819L2577.45,-181.715L2580.17,-180.599L2582.88,-179.471L2585.59,-178.332L2588.28,-177.181L2590.96,-176.017L2593.64,-174.841L2596.3,-173.653L2598.95,-172.453L2601.59,-171.24L2604.22,-170.015L2606.84,-168.777L2609.45,-167.527L2612.05,-166.263L2614.63,-164.987L2617.21,-163.698L2619.77,-162.396L2622.33,-161.08L2624.87,-159.752L2627.4,-158.41L2629.92,-157.054L2632.43,-155.685L2634.93,-154.301L2637.41,-152.904L2639.89,-151.494L2642.35,-150.068L2644.8,-148.629L2647.24,-147.176L2649.67,-145.707L2652.08,-144.224L2654.49,-142.727L2656.88,-141.214L2659.26,-139.686L2661.62,-138.143L2663.98,-136.585L2666.32,-135.011L2668.65,-133.422L2670.97,-131.817L2673.27,-130.196L2675.57,-128.558L2677.84,-126.905L2680.11,-125.236L2682.36,-123.549L2684.6,-121.846L2686.83,-120.126L2689.04,-118.389L2691.24,-116.635L2693.43,-114.862L2695.6,-113.074L2697.75,-111.268L2699.9,-109.442L2702.03,-107.601L2704.14,-105.741L2706.24,-103.861L2708.33,-101.963L2710.39,-100.048L2712.45,-98.112L2714.49,-96.158L2716.51,-94.187L2718.52,-92.194L2720.51,-90.182L2722.48,-88.153L2724.44,-86.101L2726.38,-84.031L2728.31,-81.941L2730.21,-79.829L2732.1,-77.699L2733.98,-75.546L2735.83,-73.377L2737.66,-71.186L2739.48,-68.971L2741.28,-66.737L2743.06,-64.485L2744.82,-62.208L2746.56,-59.911L2748.28,-57.596L2749.97,-55.257L2751.65,-52.898L2753.31,-50.517L2754.95,-48.117L2756.56,-45.695L2758.15,-43.248L2759.72,-40.782L2761.27,-38.298L2762.79,-35.794L2764.29,-33.266L2765.76,-30.715L2767.21,-28.147L2768.64,-25.553L2770.04,-22.944L2771.42,-20.314L2772.77,-17.66L2774.09,-14.991L2775.39,-12.301L2776.66,-9.591L2777.9,-6.86L2779.12,-4.105L2780.3,-1.337L2781.46,1.446L2782.59,4.253L2783.69,7.075L2784.76,9.921L2785.8,12.781L2786.81,15.655L2787.79,18.547L2788.74,21.457L2789.66,24.384L2790.55,27.323L2791.41,30.28L2792.23,33.252L2793.03,36.24L2793.79,39.24L2794.51,42.249L2795.21,45.278L2795.87,48.32L2796.5,51.372L2797.1,54.432L2797.66,57.505L2798.2,60.594L2798.69,63.692L2799.16,66.8L2799.59,69.915L2799.98,73.035L2800.35,76.17L2800.68,79.315L2800.97,82.465L2801.23,85.618L2801.46,88.785L2801.66,91.959L2801.82,95.132L2801.94,98.317L2802.04,101.504L2802.1,104.697L2802.12,107.896L2802.12,111.097L2802.08,114.307L2802,117.518L2801.9,120.729L2801.76,123.945L2801.59,127.169L2801.38,130.393L2801.15,133.611L2800.88,136.838L2800.58,140.072L2800.25,143.3L2799.88,146.531L2799.49,149.769L2799.06,153.001L2798.6,156.236L2798.11,159.476L2797.59,162.71L2797.04,165.947L2796.45,169.189L2795.84,172.428L2795.2,175.669L2794.52,178.908L2793.82,182.145L2793.09,185.387L2792.33,188.629L2791.53,191.873L2790.71,195.112L2789.86,198.352L2788.98,201.596L2788.07,204.838L2787.13,208.082L2786.16,211.323L2785.17,214.566L2784.14,217.81L2783.09,221.053L2782.01,224.296L2780.9,227.545L2779.76,230.792L2778.6,234.034L2777.4,237.282L2776.18,240.534L2774.93,243.782L2773.66,247.031L2772.35,250.283L2771.02,253.534L2769.66,256.791L2768.27,260.047L2766.86,263.302L2765.42,266.563L2763.95,269.823L2762.45,273.087L2760.93,276.353L2759.38,279.617L2757.8,282.886L2756.19,286.162L2754.56,289.435L2752.9,292.712L2751.21,295.992L2749.5,299.274L2747.76,302.559L2745.99,305.848L2744.2,309.141L2742.37,312.436L2740.52,315.734L2738.64,319.037L2736.74,322.345L2734.81,325.655L2732.85,328.967L2730.86,332.286L2728.85,335.608L2726.81,338.934L2724.74,342.265L2722.64,345.602L2720.52,348.942L2718.37,352.285L2716.19,355.635L2713.99,358.99L2711.75,362.35L2709.49,365.715L2707.2,369.084L2704.89,372.459L2702.54,375.84L2700.17,379.226L2697.77,382.617L2695.34,386.017L2692.88,389.42L2690.4,392.829L2687.89,396.246L2685.35,399.666L2682.78,403.093L2680.18,406.529L2677.55,409.97L2674.9,413.416L2672.21,416.869L2669.5,420.329L2666.76,423.797L2663.99,427.271L2661.19,430.751L2658.36,434.238L2655.51,437.732L2652.62,441.235L2649.71,444.744L2646.76,448.259L2643.79,451.783L2640.79,455.314L2637.75,458.852L2634.69,462.398L2631.6,465.951L2628.48,469.513L2625.33,473.082L2622.15,476.658L2618.94,480.242L2615.7,483.834L2612.43,487.435L2609.13,491.044L2605.8,494.66L2602.43,498.284L2599.04,501.918L2595.62,505.559L2592.17,509.208L2588.68,512.867L2585.17,516.533L2581.62,520.207L2578.05,523.892L2574.44,527.584L2570.8,531.284L2567.13,534.993L2563.43,538.711L2559.7,542.438L2555.94,546.174L2552.14,549.919L2548.32,553.672L2544.46,557.434L2540.57,561.206L2536.65,564.987L2532.69,568.776L2528.71,572.575L2524.69,576.384L2520.64,580.201L2516.56,584.027L2512.45,587.863L2508.3,591.709L2504.12,595.564L2499.91,599.427L2495.66,603.301L2491.39,607.184L2487.08,611.077L2482.74,614.979L2478.36,618.891L2473.95,622.812L2469.51,626.744L2465.03,630.684L2460.53,634.635L2455.99,638.596L2451.41,642.566L2446.8,646.546L2442.16,650.536L2437.48,654.536L2432.77,658.546L2428.03,662.565L2423.25,666.595L2418.44,670.635L2413.59,674.685L2408.71,678.745L2403.8,682.815L2398.85,686.895L2393.87,690.986L2388.85,695.087L2383.8,699.197L2378.71,703.318L2373.59,707.45L2368.43,711.592L2363.24,715.744L2358.01,719.907L2352.75,724.079L2347.45,728.263L2342.12,732.457L2336.75,736.661L2331.35,740.876L2325.91,745.101L2320.44,749.336L2314.93,753.583L2309.38,757.84L2303.8,762.107L2298.18,766.385L2292.53,770.674L2286.84,774.974L2281.11,779.284L2275.35,783.605L2269.55,787.936L2263.72,792.279L2257.84,796.632L2251.93,800.996L2245.99,805.371L2240.01,809.756L2233.99,814.153L2228.08,818.457L2227.21,819.095L2226.48,819.631L2225.77,820.171L2225.06,820.719L2224.35,821.272L2223.65,821.827L2222.95,822.389L2222.25,822.956L2221.57,823.526L2220.88,824.102L2220.2,824.682L2219.53,825.269L2218.86,825.861L2218.19,826.454L2217.53,827.055L2216.87,827.665L2216.21,828.276L2215.56,828.891L2214.91,829.515L2214.27,830.144L2213.63,830.776L2213,831.415L2212.36,832.061L2211.73,832.711L2211.11,833.366L2210.48,834.029L2209.87,834.696L2209.25,835.37L2208.64,836.05L2208.03,836.734L2207.42,837.426L2206.82,838.124L2206.22,838.829L2205.62,839.54L2205.03,840.255L2204.43,840.975L2203.85,841.707L2203.34,842.338L2202.1,843.936L2200.94,845.455L2199.8,847L2198.67,848.572L2197.55,850.172L2196.44,851.8L2195.34,853.459L2194.25,855.146L2193.17,856.86L2192.1,858.607L2191.04,860.383L2189.99,862.189L2188.95,864.027L2187.93,865.894L2186.91,867.793L2185.9,869.723L2184.9,871.685L2183.91,873.678L2182.94,875.703L2181.97,877.761L2181.01,879.851L2180.07,881.973L2179.14,884.125L2178.22,886.312L2177.3,888.53L2176.41,890.781L2175.52,893.064L2174.64,895.379L2173.78,897.728L2172.93,900.107L2172.09,902.518L2171.26,904.961L2170.44,907.438L2169.64,909.945L2168.85,912.483L2168.07,915.055L2167.31,917.656L2166.56,920.289L2165.82,922.954L2165.1,925.648L2164.39,928.373L2163.69,931.13L2163,933.915L2162.33,936.732L2161.68,939.577L2161.03,942.451L2160.4,945.358L2159.79,948.291L2159.19,951.252L2158.6,954.243L2158.03,957.263L2157.47,960.311L2156.93,963.384L2156.39,966.485L2155.88,969.617L2155.38,972.773L2154.89,975.954L2154.42,979.164L2153.96,982.4L2153.51,985.661L2153.09,988.946L2152.67,992.258L2152.27,995.595L2151.88,998.957L2151.51,1002.34L2151.15,1005.75L2150.81,1009.19L2150.48,1012.64L2150.16,1016.12L2149.86,1019.62L2149.57,1023.15L2149.3,1026.7L2149.04,1030.27L2148.79,1033.86L2148.56,1037.47L2148.34,1041.1L2148.14,1044.76L2147.95,1048.43L2147.77,1052.13L2147.61,1055.84L2147.46,1059.58L2147.32,1063.33L2147.2,1067.11L2147.09,1070.9L2147,1074.71L2146.91,1078.54L2146.84,1082.39L2146.79,1086.25L2146.74,1090.13L2146.71,1094.03L2146.69,1097.95L2146.69,1101.88L2146.69,1105.83L2146.71,1109.8L2146.74,1113.78L2146.78,1117.77L2146.84,1121.79L2146.91,1125.81L2146.99,1129.85L2147.08,1133.91L2147.18,1137.98L2147.29,1142.07L2147.42,1146.16L2147.56,1150.28L2147.7,1154.4L2147.86,1158.54L2148.03,1162.69L2148.21,1166.85L2148.41,1171.02L2148.61,1175.21L2148.82,1179.41L2149.04,1183.62L2149.28,1187.84L2149.52,1192.07L2149.77,1196.31L2150.04,1200.56L2150.31,1204.78L2150.88,1213.38L2151.5,1221.98L2152.14,1230.6L2152.83,1239.26L2153.55,1247.96L2154.3,1256.68L2155.08,1265.43L2155.9,1274.21L2156.74,1283.01L2157.62,1291.84L2158.52,1300.68L2159.45,1309.55L2160.41,1318.43L2161.39,1327.33L2162.39,1336.24L2163.41,1345.16L2164.46,1354.1L2165.53,1363.04L2166.62,1371.99L2167.72,1380.94L2168.85,1389.9L2169.99,1398.85L2171.14,1407.81L2172.3,1416.77L2173.49,1425.72L2174.68,1434.67L2175.88,1443.61L2177.09,1452.52L2179.53,1470.37L2182,1488.15L2184.48,1505.87L2186.97,1523.5L2191.92,1558.49L2194.37,1575.82L2196.78,1593.02L2199.16,1610.08L2201.48,1626.97L2202.62,1635.39L2203.75,1643.75L2204.86,1652.06L2205.95,1660.34L2207.02,1668.57L2208.07,1676.75L2209.1,1684.88L2210.1,1692.97L2211.09,1701L2212.04,1708.99L2212.97,1716.92L2213.89,1724.93L2214.37,1729.36L2214.83,1733.91L2215.25,1738.44L2215.63,1742.97L2215.97,1747.49L2216.28,1751.99L2216.54,1756.49L2216.77,1760.97L2216.96,1765.44L2217.12,1769.9L2217.24,1774.35L2217.32,1778.78L2217.37,1783.21L2217.38,1787.62L2217.36,1792.01L2217.3,1796.4L2217.2,1800.77L2217.07,1805.13L2216.91,1809.47L2216.71,1813.8L2216.48,1818.12L2216.21,1822.41L2215.92,1826.7L2215.59,1830.98L2215.22,1835.23L2214.83,1839.47L2214.4,1843.7L2213.94,1847.91L2213.45,1852.11L2212.93,1856.29L2212.38,1860.45L2211.8,1864.6L2211.19,1868.74L2210.55,1872.85L2209.88,1876.95L2209.18,1881.03L2208.45,1885.1L2207.69,1889.15L2206.91,1893.18L2206.1,1897.19L2205.26,1901.19L2204.4,1905.17L2203.51,1909.14L2202.59,1913.08L2201.65,1917.01L2200.68,1920.92L2199.69,1924.81L2198.67,1928.69L2197.63,1932.54L2196.56,1936.38L2195.47,1940.2L2194.36,1944L2193.22,1947.79L2192.06,1951.55L2190.88,1955.3L2189.68,1959.03L2188.46,1962.74L2187.21,1966.43L2185.95,1970.11L2184.66,1973.76L2183.35,1977.4L2182.03,1981.02L2180.68,1984.62L2179.32,1988.2L2177.93,1991.76L2176.53,1995.3L2175.11,1998.83L2173.67,2002.33L2172.21,2005.82L2170.74,2009.29L2169.25,2012.74L2167.74,2016.17L2166.22,2019.58L2164.68,2022.98L2163.13,2026.35L2161.55,2029.71L2159.97,2033.04L2158.37,2036.36L2156.76,2039.66L2155.13,2042.94L2153.49,2046.21L2151.83,2049.45L2150.16,2052.68L2148.48,2055.88L2146.79,2059.07L2145.08,2062.24L2143.36,2065.39L2141.63,2068.52L2139.89,2071.64L2138.14,2074.73L2136.37,2077.81L2134.6,2080.86L2132.82,2083.9L2131.02,2086.93L2129.22,2089.93L2127.41,2092.91L2125.58,2095.88L2123.75,2098.82L2121.91,2101.75L2120.07,2104.66L2118.21,2107.55L2116.35,2110.43L2114.47,2113.28L2112.6,2116.12L2110.71,2118.94L2108.82,2121.74L2106.92,2124.52L2105.02,2127.28L2103.11,2130.03L2101.19,2132.76L2099.27,2135.47L2097.34,2138.16L2095.41,2140.83L2093.48,2143.49L2091.54,2146.13L2089.6,2148.74L2087.65,2151.34L2085.7,2153.93L2083.74,2156.49L2081.78,2159.04L2079.83,2161.57L2077.86,2164.08L2075.9,2166.57L2073.93,2169.04L2071.97,2171.5L2069.99,2173.94L2068.02,2176.36L2066.05,2178.76L2064.08,2181.15L2062.11,2183.52L2060.13,2185.87L2058.16,2188.2L2056.19,2190.51L2054.17,2192.86L2050.27,2197.35L2046.34,2201.81L2042.41,2206.21L2038.49,2210.53L2034.58,2214.79L2030.68,2218.97L2026.8,2223.08L2022.93,2227.12L2019.09,2231.09L2015.26,2234.99L2011.46,2238.82L2007.68,2242.57L2003.93,2246.26L2000.2,2249.88L1996.51,2253.42L1992.85,2256.89L1989.22,2260.29L1985.63,2263.62L1982.08,2266.88L1978.56,2270.07L1975.09,2273.18L1971.66,2276.23L1968.28,2279.2L1964.94,2282.1L1961.66,2284.93L1958.42,2287.69L1955.24,2290.38L1952.11,2292.99L1949.05,2295.53L1946.04,2298L1943.08,2300.4L1940.2,2302.72L1937.37,2304.98L1934.62,2307.16L1931.93,2309.26L1929.31,2311.3L1926.76,2313.26L1924.3,2315.14L1921.9,2316.96L1919.58,2318.7L1917.29,2320.41L1913.12,2323.47L1909.23,2326.29L1905.69,2328.81L1902.54,2331.03L1899.77,2332.94L1897.4,2334.56L1895.44,2335.87L1893.89,2336.9L1827.64,2380.08L1752.07,2233.89L1817.85,2191L1818.55,2190.54L1819.69,2189.77L1821.24,2188.72L1823.16,2187.39L1825.46,2185.78L1828.1,2183.89L1831.08,2181.74L1834.44,2179.26L1836.15,2177.99L1837.98,2176.62L1839.89,2175.17L1841.87,2173.66L1843.92,2172.08L1846.03,2170.44L1848.2,2168.74L1850.44,2166.97L1852.74,2165.13L1855.1,2163.23L1857.51,2161.28L1859.97,2159.25L1862.49,2157.17L1865.06,2155.02L1867.68,2152.81L1870.34,2150.54L1873.04,2148.21L1875.79,2145.82L1878.58,2143.37L1881.41,2140.86L1884.27,2138.29L1887.16,2135.67L1890.09,2132.98L1893.05,2130.24L1896.04,2127.44L1899.05,2124.58L1902.09,2121.66L1905.15,2118.7L1908.23,2115.67L1911.33,2112.59L1914.44,2109.45L1917.57,2106.27L1920.71,2103.02L1923.87,2099.73L1927.03,2096.38L1930.19,2092.98L1933.37,2089.53L1936.54,2086.03L1939.72,2082.47L1942.89,2078.87L1946.11,2075.16L1947.65,2073.38L1949.23,2071.52L1950.81,2069.65L1952.39,2067.77L1953.97,2065.88L1955.54,2063.97L1957.12,2062.06L1958.68,2060.13L1960.25,2058.19L1961.81,2056.24L1963.37,2054.28L1964.93,2052.3L1966.48,2050.32L1968.02,2048.33L1969.57,2046.32L1971.11,2044.3L1972.64,2042.27L1974.16,2040.23L1975.69,2038.18L1977.2,2036.12L1978.71,2034.05L1980.22,2031.97L1981.72,2029.87L1983.21,2027.77L1984.69,2025.65L1986.17,2023.53L1987.64,2021.39L1989.1,2019.25L1990.56,2017.1L1992.01,2014.93L1993.45,2012.76L1994.88,2010.57L1996.3,2008.38L1997.72,2006.17L1999.12,2003.96L2000.52,2001.74L2001.9,1999.51L2003.28,1997.27L2004.65,1995.02L2006,1992.76L2007.35,1990.49L2008.69,1988.21L2010.02,1985.92L2011.33,1983.63L2012.63,1981.33L2013.93,1979.02L2015.21,1976.69L2016.48,1974.36L2017.74,1972.03L2018.99,1969.68L2020.22,1967.33L2021.44,1964.97L2022.65,1962.59L2023.85,1960.22L2025.03,1957.83L2026.21,1955.43L2027.36,1953.03L2028.51,1950.62L2029.64,1948.2L2030.76,1945.78L2031.86,1943.35L2032.95,1940.91L2034.02,1938.46L2035.08,1936L2036.13,1933.54L2037.16,1931.07L2038.18,1928.6L2039.18,1926.12L2040.16,1923.62L2041.13,1921.12L2042.09,1918.62L2043.03,1916.11L2043.95,1913.59L2044.86,1911.07L2045.75,1908.53L2046.63,1905.99L2047.48,1903.45L2048.32,1900.89L2049.15,1898.34L2049.96,1895.77L2050.75,1893.19L2051.52,1890.62L2052.28,1888.03L2053.02,1885.44L2053.74,1882.84L2054.45,1880.23L2055.13,1877.62L2055.8,1875L2056.45,1872.38L2057.08,1869.74L2057.7,1867.1L2058.29,1864.46L2058.87,1861.8L2059.43,1859.14L2059.96,1856.48L2060.48,1853.8L2060.98,1851.12L2061.46,1848.43L2061.93,1845.74L2062.37,1843.03L2062.79,1840.33L2063.19,1837.61L2063.57,1834.88L2063.93,1832.15L2064.28,1829.41L2064.6,1826.66L2064.9,1823.91L2065.18,1821.15L2065.43,1818.38L2065.67,1815.59L2065.89,1812.81L2066.08,1810.01L2066.25,1807.21L2066.41,1804.39L2066.53,1801.57L2066.64,1798.74L2066.72,1795.9L2066.79,1793.05L2066.82,1790.19L2066.84,1787.32L2066.83,1784.45L2066.8,1781.56L2066.75,1778.66L2066.67,1775.76L2066.57,1772.84L2066.44,1769.91L2066.29,1766.97L2066.12,1764.02L2065.92,1761.06L2065.69,1758.09L2065.44,1755.11L2065.16,1752.11L2064.86,1749.11L2064.52,1745.96L2063.69,1738.73L2062.82,1731.28L2061.92,1723.75L2060.99,1716.14L2060.03,1708.45L2059.05,1700.69L2058.04,1692.85L2057.01,1684.93L2055.96,1676.95L2054.89,1668.9L2053.79,1660.78L2052.68,1652.62L2050.41,1636.03L2048.07,1619.24L2045.68,1602.22L2043.25,1585L2038.29,1549.98L2035.78,1532.22L2033.28,1514.3L2030.77,1496.25L2028.28,1478.09L2027.04,1468.93L2025.81,1459.77L2024.59,1450.59L2023.37,1441.38L2022.17,1432.14L2020.98,1422.89L2019.8,1413.62L2018.63,1404.33L2017.49,1395.03L2016.35,1385.7L2015.24,1376.37L2014.14,1367.03L2013.07,1357.67L2012.01,1348.31L2010.98,1338.94L2009.97,1329.57L2008.99,1320.19L2008.03,1310.81L2007.1,1301.43L2006.2,1292.04L2005.33,1282.66L2004.49,1273.28L2003.68,1263.91L2002.91,1254.54L2002.17,1245.18L2001.46,1235.82L2000.8,1226.48L2000.17,1217.2L1999.87,1212.48L1999.59,1207.83L1999.31,1203.17L1999.04,1198.52L1998.78,1193.87L1998.54,1189.22L1998.3,1184.58L1998.08,1179.95L1997.87,1175.31L1997.66,1170.69L1997.48,1166.06L1997.3,1161.44L1997.13,1156.83L1996.98,1152.22L1996.84,1147.61L1996.71,1143.02L1996.59,1138.42L1996.49,1133.84L1996.4,1129.25L1996.33,1124.67L1996.26,1120.11L1996.21,1115.54L1996.18,1110.98L1996.16,1106.43L1996.15,1101.89L1996.16,1097.35L1996.18,1092.82L1996.21,1088.29L1996.27,1083.77L1996.33,1079.26L1996.41,1074.76L1996.51,1070.26L1996.63,1065.77L1996.75,1061.29L1996.9,1056.82L1997.06,1052.35L1997.24,1047.89L1997.43,1043.44L1997.65,1039L1997.88,1034.57L1998.12,1030.15L1998.39,1025.73L1998.67,1021.32L1998.97,1016.92L1999.29,1012.53L1999.63,1008.15L1999.98,1003.78L2000.36,999.419L2000.75,995.067L2001.17,990.723L2001.6,986.389L2002.06,982.065L2002.53,977.751L2003.03,973.446L2003.54,969.153L2004.08,964.869L2004.64,960.593L2005.22,956.329L2005.83,952.077L2006.45,947.835L2007.1,943.601L2007.77,939.38L2008.46,935.171L2009.18,930.971L2009.92,926.782L2010.69,922.606L2011.48,918.442L2012.29,914.288L2013.13,910.145L2014,906.015L2014.89,901.898L2015.81,897.791L2016.75,893.698L2017.73,889.618L2018.72,885.549L2019.75,881.494L2020.81,877.451L2021.89,873.422L2023,869.407L2024.14,865.404L2025.31,861.416L2026.52,857.443L2027.75,853.483L2029.01,849.538L2030.3,845.609L2031.63,841.693L2032.99,837.793L2034.38,833.909L2035.8,830.043L2037.26,826.191L2038.75,822.358L2040.27,818.54L2041.83,814.741L2043.43,810.96L2045.06,807.196L2046.73,803.452L2048.43,799.728L2050.17,796.023L2051.95,792.338L2053.76,788.673L2055.61,785.032L2057.5,781.411L2059.43,777.813L2061.4,774.238L2063.41,770.689L2065.46,767.162L2067.55,763.66L2069.68,760.186L2071.85,756.735L2074.06,753.314L2076.31,749.922L2078.6,746.557L2080.94,743.221L2083.32,739.916L2085.73,736.643L2088.19,733.402L2090.61,730.3L2091.97,728.604L2093.24,727.023L2094.53,725.446L2095.83,723.879L2097.14,722.323L2098.46,720.776L2099.79,719.238L2101.13,717.708L2102.48,716.186L2103.85,714.677L2105.22,713.176L2106.6,711.683L2107.99,710.203L2109.4,708.73L2110.82,707.267L2112.24,705.817L2113.67,704.375L2115.12,702.942L2116.58,701.521L2118.04,700.113L2119.52,698.71L2121.01,697.32L2122.5,695.945L2124.01,694.577L2125.53,693.218L2127.06,691.873L2128.6,690.54L2130.14,689.216L2131.7,687.905L2133.27,686.603L2134.85,685.316L2136.43,684.04L2138.03,682.774L2139.64,681.522L2141.25,680.281L2142.88,679.05L2144.52,677.833L2146.02,676.732L2152.01,672.375L2157.82,668.132L2163.59,663.901L2169.32,659.684L2175.01,655.479L2180.66,651.286L2186.28,647.106L2191.86,642.938L2197.4,638.783L2202.91,634.64L2208.37,630.51L2213.8,626.392L2219.19,622.286L2224.55,618.193L2229.86,614.113L2235.14,610.045L2240.38,605.989L2245.59,601.946L2250.75,597.916L2255.89,593.898L2260.98,589.893L2266.03,585.9L2271.05,581.919L2276.03,577.951L2280.98,573.996L2285.89,570.054L2290.76,566.124L2295.6,562.206L2300.4,558.301L2305.16,554.409L2309.89,550.529L2314.58,546.662L2319.23,542.807L2323.85,538.965L2328.43,535.136L2332.98,531.319L2337.49,527.515L2341.96,523.724L2346.4,519.945L2350.8,516.179L2355.17,512.426L2359.5,508.686L2363.8,504.958L2368.05,501.243L2372.28,497.541L2376.47,493.851L2380.62,490.174L2384.74,486.511L2388.83,482.86L2392.88,479.221L2396.89,475.596L2400.87,471.983L2404.81,468.384L2408.72,464.797L2412.6,461.224L2416.43,457.663L2420.24,454.115L2424.01,450.58L2427.75,447.058L2431.45,443.55L2435.11,440.054L2438.75,436.572L2442.35,433.102L2445.91,429.646L2449.44,426.203L2452.94,422.773L2456.4,419.356L2459.83,415.953L2463.22,412.563L2466.58,409.186L2469.91,405.823L2473.2,402.471L2476.47,399.135L2479.69,395.813L2482.88,392.502L2486.04,389.206L2489.17,385.923L2492.26,382.653L2495.32,379.398L2498.35,376.156L2501.34,372.928L2504.31,369.712L2507.23,366.512L2510.13,363.325L2512.99,360.151L2515.82,356.992L2518.62,353.846L2521.38,350.714L2524.12,347.598L2526.82,344.494L2529.48,341.405L2532.12,338.33L2534.72,335.269L2537.29,332.223L2539.83,329.19L2542.34,326.172L2544.81,323.169L2547.26,320.18L2549.67,317.204L2552.05,314.244L2554.4,311.3L2556.71,308.37L2559,305.454L2561.25,302.553L2563.48,299.666L2565.67,296.795L2567.83,293.941L2569.96,291.099L2572.06,288.272L2574.12,285.463L2576.16,282.668L2578.17,279.888L2580.14,277.125L2582.09,274.376L2584,271.642L2585.89,268.925L2587.74,266.224L2589.57,263.538L2591.36,260.868L2593.12,258.215L2594.86,255.577L2596.56,252.957L2598.24,250.35L2599.88,247.761L2601.5,245.19L2603.09,242.636L2604.64,240.097L2606.17,237.574L2607.67,235.07L2609.14,232.58L2610.59,230.108L2612,227.655L2613.38,225.219L2614.74,222.799L2616.07,220.396L2617.37,218.013L2618.64,215.646L2619.89,213.296L2621.11,210.964L2622.3,208.651L2623.46,206.355L2624.59,204.077L2625.7,201.822L2626.78,199.581L2627.84,197.356L2628.87,195.154L2629.87,192.969L2630.84,190.803L2631.79,188.657L2632.72,186.526L2633.62,184.417L2634.49,182.328L2635.34,180.256L2636.16,178.204L2636.96,176.171L2637.73,174.156L2638.48,172.167L2639.21,170.193L2639.91,168.234L2640.59,166.301L2641.24,164.389L2641.87,162.493L2642.48,160.617L2643.07,158.762L2643.63,156.926L2644.17,155.11L2644.69,153.316L2645.19,151.541L2645.67,149.788L2646.12,148.051L2646.56,146.333L2646.97,144.641L2647.37,142.967L2647.74,141.314L2648.1,139.675L2648.43,138.058L2648.75,136.464L2649.05,134.888L2649.33,133.335L2649.59,131.796L2649.83,130.276L2650.06,128.782L2650.27,127.301L2650.46,125.839L2650.64,124.402L2650.8,122.978L2650.94,121.572L2651.07,120.191L2651.19,118.823L2651.28,117.466L2651.37,116.135L2651.44,114.824L2651.49,113.525L2651.54,112.241L2651.57,110.976L2651.58,109.731L2651.58,108.495L2651.57,107.278L2651.55,106.075L2651.52,104.885L2651.47,103.713L2651.41,102.548L2651.34,101.405L2651.26,100.274L2651.17,99.149L2651.06,98.04L2650.95,96.946L2650.82,95.862L2650.68,94.782L2650.54,93.717L2650.38,92.664L2650.21,91.62L2650.03,90.588L2649.85,89.559L2649.65,88.536L2649.44,87.524L2649.22,86.523L2648.99,85.527L2648.75,84.531L2648.5,83.545L2648.24,82.566L2647.97,81.592L2647.69,80.621L2647.4,79.652L2647.09,78.69L2646.78,77.73L2646.45,76.771L2646.12,75.814L2645.77,74.862L2645.41,73.914L2645.04,72.963L2644.66,72.015L2644.27,71.063L2643.86,70.114L2643.44,69.172L2643.01,68.225L2642.57,67.276L2642.11,66.326L2641.64,65.374L2641.16,64.426L2640.66,63.473L2640.14,62.518L2639.62,61.566L2639.08,60.609L2638.53,59.653L2637.96,58.693L2637.37,57.726L2636.77,56.761L2636.16,55.795L2635.53,54.829L2634.88,53.857L2634.22,52.881L2633.54,51.906L2632.84,50.927L2632.13,49.948L2631.4,48.962L2630.65,47.977L2629.89,46.991L2629.11,45.999L2628.31,45.008L2627.49,44.016L2626.66,43.018L2625.8,42.018L2624.93,41.02L2624.05,40.018L2623.14,39.015L2622.22,38.01L2621.27,37.003L2620.31,35.996L2619.33,34.985L2618.33,33.975L2617.31,32.965L2616.27,31.952L2615.21,30.939L2614.14,29.927L2613.04,28.913L2611.93,27.899L2610.8,26.887L2609.65,25.872L2608.47,24.857L2607.28,23.845L2606.07,22.831L2604.84,21.817L2603.6,20.807L2602.33,19.796L2601.04,18.785L2599.74,17.776L2598.41,16.769L2597.07,15.763L2595.7,14.758L2594.32,13.755L2592.92,12.755L2591.5,11.755L2590.06,10.758L2588.6,9.763L2587.12,8.77L2585.63,7.78L2584.11,6.793L2582.58,5.808L2581.03,4.827L2579.46,3.848L2577.87,2.872L2576.26,1.9L2574.63,0.93L2572.99,-0.035L2571.33,-0.997L2569.64,-1.956L2567.95,-2.911L2566.23,-3.861L2564.49,-4.808L2562.74,-5.751L2560.97,-6.689L2559.18,-7.624L2557.38,-8.553L2555.56,-9.479L2553.72,-10.4L2551.86,-11.317L2549.98,-12.228L2548.09,-13.135L2546.18,-14.037L2544.26,-14.934L2542.32,-15.826L2540.36,-16.713L2538.38,-17.595L2536.39,-18.471L2534.38,-19.342L2532.36,-20.208L2530.31,-21.068L2528.26,-21.923L2526.18,-22.772L2524.1,-23.616L2521.99,-24.453L2519.87,-25.285L2517.73,-26.112L2515.58,-26.932L2513.42,-27.746L2511.23,-28.555L2509.03,-29.358L2506.82,-30.154L2504.6,-30.944L2502.35,-31.728L2500.1,-32.506L2497.82,-33.278L2495.54,-34.043L2493.24,-34.801L2490.92,-35.554L2488.59,-36.3L2486.25,-37.04L2483.89,-37.773L2481.52,-38.5L2479.13,-39.22L2476.73,-39.933L2474.32,-40.64L2471.89,-41.34L2469.45,-42.033L2467,-42.72L2464.53,-43.4L2462.05,-44.073L2459.56,-44.739L2457.06,-45.399L2454.54,-46.052L2452.01,-46.697L2449.46,-47.336L2446.91,-47.968L2444.34,-48.593L2441.82,-49.197L2436.56,-50.426L2431.31,-51.613L2426.01,-52.772L2420.67,-53.902L2415.28,-55.004L2409.85,-56.077L2404.38,-57.121L2398.86,-58.137L2393.29,-59.123L2387.69,-60.081L2382.04,-61.009L2376.35,-61.909L2370.63,-62.779L2364.86,-63.62L2359.06,-64.431L2353.21,-65.214L2347.34,-65.967L2341.42,-66.69L2335.47,-67.384L2329.49,-68.049L2323.47,-68.684L2317.41,-69.289L2311.33,-69.865L2305.21,-70.412L2299.07,-70.929L2292.89,-71.416L2286.68,-71.874L2280.45,-72.303L2274.18,-72.702L2267.89,-73.072L2261.57,-73.412L2255.22,-73.722L2248.85,-74.004L2242.46,-74.256L2236.04,-74.478L2229.6,-74.672L2223.13,-74.835L2216.64,-74.97L2210.14,-75.076L2203.61,-75.152L2197.06,-75.199L2190.49,-75.217L2183.9,-75.206L2177.29,-75.166L2170.67,-75.097L2164.03,-74.999L2157.38,-74.872L2150.71,-74.717L2144.02,-74.533L2137.32,-74.319L2130.61,-74.078L2123.89,-73.807L2117.15,-73.509L2110.4,-73.181L2103.64,-72.825L2096.87,-72.441L2090.1,-72.029L2083.31,-71.588L2076.51,-71.119L2069.71,-70.622L2062.9,-70.098L2056.09,-69.545L2049.27,-68.964L2042.44,-68.355L2035.62,-67.719L2028.78,-67.054L2021.95,-66.363L2015.11,-65.643L2008.28,-64.897L2001.44,-64.123L1994.6,-63.321L1987.76,-62.492L1980.92,-61.636L1974.09,-60.753L1967.25,-59.844L1960.42,-58.907L1953.6,-57.943L1946.78,-56.952L1939.96,-55.935L1933.15,-54.891L1926.35,-53.821L1919.55,-52.725L1912.76,-51.602L1905.98,-50.452L1899.21,-49.277L1892.44,-48.075L1885.69,-46.848L1878.95,-45.595L1872.22,-44.315L1865.51,-43.011L1858.8,-41.68L1852.11,-40.324L1845.44,-38.943L1838.78,-37.537L1832.13,-36.105L1825.5,-34.648L1818.89,-33.166L1812.3,-31.659L1805.72,-30.128L1799.16,-28.572L1792.62,-26.991L1786.11,-25.386L1779.61,-23.756L1773.13,-22.102L1766.68,-20.424L1760.25,-18.723L1753.84,-16.997L1747.46,-15.247L1741.1,-13.474L1734.77,-11.678L1728.47,-9.858L1722.19,-8.015L1715.94,-6.148L1709.71,-4.259L1703.52,-2.347L1697.35,-0.412L1691.22,1.545L1685.12,3.525L1679.04,5.526L1673.01,7.551L1667,9.596L1661.03,11.664L1655.09,13.753L1649.18,15.864L1643.32,17.996L1637.49,20.149L1631.69,22.323L1625.93,24.518L1620.22,26.734L1614.54,28.969L1608.9,31.225L1603.3,33.501L1597.74,35.796L1592.23,38.112L1586.76,40.446L1581.33,42.799L1575.94,45.172L1570.6,47.563L1565.31,49.972L1560.06,52.399L1554.86,54.845L1549.71,57.308L1544.6,59.788L1539.55,62.285L1534.54,64.799L1529.53,67.357L1527.13,68.6L1524.68,69.876L1522.25,71.155L1519.83,72.438L1517.43,73.725L1515.03,75.015L1512.65,76.31L1510.29,77.608L1507.93,78.91L1505.6,80.215L1503.27,81.524L1500.96,82.837L1498.66,84.153L1496.38,85.473L1494.11,86.796L1491.86,88.122L1489.62,89.451L1487.39,90.784L1485.18,92.12L1482.98,93.459L1480.8,94.801L1478.63,96.146L1476.48,97.494L1474.34,98.846L1472.22,100.2L1470.11,101.556L1468.02,102.915L1465.94,104.277L1463.88,105.642L1461.83,107.009L1459.8,108.378L1457.78,109.75L1455.78,111.124L1453.8,112.501L1451.83,113.879L1449.88,115.26L1447.94,116.643L1446.02,118.028L1444.12,119.414L1442.23,120.802L1440.36,122.192L1438.51,123.584L1436.67,124.977L1434.85,126.372L1433.05,127.767L1431.26,129.165L1429.49,130.564L1427.73,131.963L1426,133.364L1424.28,134.765L1422.58,136.168L1420.89,137.571L1419.22,138.975L1417.58,140.379L1415.94,141.784L1414.33,143.189L1412.73,144.594L1411.15,146L1409.59,147.405L1408.05,148.81L1406.52,150.216L1405.01,151.62L1403.52,153.025L1402.05,154.429L1400.6,155.832L1399.16,157.235L1397.74,158.637L1396.34,160.038L1394.96,161.437L1393.6,162.835L1392.26,164.232L1390.93,165.628L1389.62,167.022L1388.34,168.414L1387.07,169.804L1385.81,171.192L1384.58,172.579L1383.37,173.963L1382.17,175.345L1381,176.723L1379.84,178.1L1378.7,179.474L1377.58,180.845L1376.47,182.213L1375.39,183.577L1374.33,184.938L1373.28,186.297L1372.25,187.651L1371.24,189.002L1370.25,190.349L1369.28,191.692L1368.33,193.032L1367.39,194.367L1366.48,195.697L1365.58,197.024L1364.7,198.346L1363.84,199.664L1362.99,200.976L1362.17,202.284L1361.36,203.586L1360.57,204.885L1359.8,206.178L1359.04,207.467L1358.31,208.749L1357.59,210.026L1356.89,211.298L1356.2,212.565L1355.54,213.826L1354.89,215.082L1354.25,216.332L1353.64,217.576L1353.04,218.816L1352.45,220.05L1351.89,221.277L1351.34,222.5L1350.8,223.716L1350.29,224.927L1349.78,226.133L1349.3,227.333L1348.82,228.528L1348.37,229.718L1347.93,230.902L1347.5,232.081L1347.09,233.255L1346.69,234.425L1346.31,235.59L1345.94,236.749L1345.59,237.905L1345.25,239.056L1344.92,240.204L1344.61,241.348L1344.31,242.487L1344.02,243.623L1343.75,244.757L1343.49,245.887L1343.24,247.015L1343,248.141L1342.78,249.263L1342.57,250.385L1342.38,251.504L1342.19,252.624L1342.02,253.743L1341.86,254.859L1341.71,255.977L1341.57,257.096L1341.45,258.214L1341.34,259.333L1341.23,260.455L1341.14,261.577L1341.07,262.702L1341,263.83L1340.95,264.961L1340.91,266.095L1340.88,267.233L1340.86,268.375L1340.86,269.523L1340.86,270.674L1340.88,271.832L1340.91,272.995L1340.96,274.165L1341.02,275.34L1341.09,276.524L1341.17,277.715L1341.27,278.914L1341.38,280.12L1341.5,281.335L1341.64,282.559L1341.79,283.794L1341.96,285.037L1342.14,286.289L1342.33,287.553L1342.54,288.827L1342.77,290.111L1343.01,291.407L1343.27,292.714L1343.54,294.033L1343.83,295.364L1344.14,296.705L1344.46,298.061L1344.8,299.429L1345.16,300.808L1345.54,302.202L1345.93,303.609L1346.35,305.026L1346.78,306.46L1347.23,307.907L1347.7,309.366L1348.19,310.839L1348.71,312.326L1349.24,313.827L1349.79,315.342L1350.37,316.871L1350.96,318.414L1351.58,319.97L1352.22,321.541L1352.88,323.126L1353.56,324.726L1354.27,326.338L1355,327.965L1355.75,329.606L1356.53,331.262L1357.33,332.931L1358.16,334.613L1359.01,336.31L1359.88,338.02L1360.78,339.744L1361.71,341.482L1362.66,343.234L1363.64,344.998L1364.64,346.776L1365.67,348.568L1366.72,350.372L1367.81,352.191L1368.91,354.021L1370.05,355.865L1371.21,357.721L1372.4,359.59L1373.62,361.472L1374.87,363.366L1376.14,365.272L1377.45,367.191L1378.78,369.122L1380.14,371.064L1381.53,373.019L1382.94,374.984L1384.39,376.963L1385.87,378.952L1387.37,380.952L1388.9,382.964L1390.47,384.987L1392.06,387.021L1393.69,389.065L1395.34,391.121L1397.03,393.186L1398.74,395.263L1400.48,397.35L1402.26,399.447L1404.07,401.553L1405.9,403.67L1407.77,405.797L1409.67,407.934L1411.6,410.08L1413.56,412.236L1415.55,414.401L1417.58,416.575L1419.63,418.759L1421.72,420.951L1423.84,423.152L1425.99,425.363L1428.17,427.582L1430.39,429.81L1432.63,432.046L1434.91,434.291L1437.22,436.544L1439.57,438.805L1441.94,441.074L1444.35,443.351L1446.79,445.636L1449.27,447.929L1451.77,450.23L1454.31,452.538L1456.88,454.855L1459.49,457.177L1462.13,459.509L1464.8,461.847L1467.5,464.192L1470.24,466.544L1473.01,468.904L1475.81,471.27L1478.65,473.643L1481.52,476.023L1484.42,478.41L1487.36,480.803L1490.34,483.203L1493.34,485.61L1496.38,488.023L1499.45,490.443L1502.56,492.868L1505.7,495.3L1508.88,497.738L1512.09,500.182L1515.33,502.632L1518.61,505.088L1521.92,507.55L1525.27,510.018L1528.65,512.492L1532.07,514.971L1535.52,517.456L1539,519.947L1542.52,522.443L1546.08,524.945L1549.67,527.452L1553.29,529.965L1556.95,532.482L1560.64,535.005L1564.37,537.534L1568.14,540.068L1571.94,542.606L1575.77,545.15L1579.64,547.699L1583.55,550.253L1587.49,552.812L1591.47,555.375L1595.48,557.944L1599.53,560.517L1603.61,563.095L1607.73,565.678L1611.88,568.266L1616.08,570.858L1620.3,573.455L1624.57,576.056L1628.86,578.662L1633.2,581.273L1637.57,583.887L1641.98,586.507L1646.42,589.131L1650.9,591.758L1655.42,594.39L1659.97,597.027L1664.56,599.668L1669.19,602.313L1673.85,604.962L1678.55,607.616L1683.29,610.273L1688.06,612.934L1692.87,615.6L1697.72,618.27L1702.6,620.943L1707.52,623.621L1712.48,626.302L1717.47,628.987L1722.51,631.677L1727.58,634.37L1732.68,637.066L1737.83,639.767L1743.01,642.471L1748.23,645.179L1753.49,647.891L1758.79,650.607L1764.12,653.326L1769.49,656.048L1774.9,658.775L1780.35,661.504L1785.83,664.238L1791.36,666.975L1796.92,669.715L1802.52,672.459L1808.15,675.206L1813.83,677.957L1819.55,680.711L1825.3,683.468L1831.09,686.229L1836.92,688.993L1842.79,691.761L1848.7,694.532L1854.64,697.305L1860.63,700.083L1866.66,702.863L1872.72,705.647L1878.82,708.434L1884.96,711.224L1891.14,714.017L1897.37,716.813L1903.63,719.613L1909.92,722.415L1986.35,756.241L1931.15,913.511L1854.6,879.63L1848.05,876.718L1841.54,873.807L1835.07,870.898L1828.64,867.99L1822.24,865.084L1815.88,862.18L1809.56,859.278L1803.28,856.378L1797.03,853.479L1790.82,850.581L1784.64,847.686L1778.51,844.792L1772.41,841.9L1766.34,839.01L1760.32,836.121L1754.33,833.234L1748.37,830.349L1742.45,827.465L1736.57,824.583L1730.73,821.703L1724.92,818.824L1719.14,815.947L1713.4,813.072L1707.7,810.198L1702.04,807.326L1696.41,804.455L1690.81,801.587L1685.25,798.719L1679.73,795.854L1674.24,792.99L1668.79,790.127L1663.37,787.266L1657.98,784.407L1652.64,781.549L1647.32,778.693L1642.04,775.838L1636.8,772.985L1631.59,770.133L1626.41,767.283L1621.27,764.434L1616.17,761.587L1611.1,758.741L1606.06,755.897L1601.05,753.053L1596.08,750.212L1591.15,747.372L1586.25,744.534L1581.38,741.696L1576.54,738.86L1571.74,736.025L1566.97,733.192L1562.24,730.36L1557.54,727.529L1552.87,724.699L1548.24,721.871L1543.63,719.044L1539.07,716.218L1534.53,713.394L1530.03,710.57L1525.56,707.747L1521.12,704.926L1516.71,702.105L1512.34,699.286L1508,696.468L1503.69,693.651L1499.41,690.835L1495.17,688.019L1490.96,685.205L1486.78,682.391L1482.63,679.579L1478.51,676.767L1474.43,673.956L1470.37,671.145L1466.35,668.336L1462.36,665.527L1458.4,662.719L1454.47,659.911L1450.57,657.104L1446.71,654.298L1442.87,651.491L1439.07,648.686L1435.29,645.881L1431.55,643.076L1427.83,640.271L1424.15,637.467L1420.5,634.663L1416.88,631.859L1413.29,629.055L1409.73,626.252L1406.19,623.449L1402.69,620.645L1399.22,617.842L1395.78,615.038L1392.37,612.234L1388.98,609.43L1385.63,606.625L1382.31,603.82L1379.01,601.015L1375.75,598.21L1372.51,595.403L1369.31,592.596L1366.13,589.789L1362.98,586.98L1359.86,584.171L1356.77,581.361L1353.71,578.55L1350.67,575.739L1347.67,572.925L1344.69,570.111L1341.75,567.296L1338.83,564.479L1335.94,561.661L1333.07,558.841L1330.24,556.02L1327.43,553.197L1324.65,550.372L1321.9,547.546L1319.18,544.717L1316.49,541.887L1313.82,539.054L1311.18,536.22L1308.57,533.383L1305.99,530.543L1303.43,527.702L1300.9,524.857L1298.4,522.01L1295.93,519.16L1293.49,516.307L1291.07,513.451L1288.68,510.592L1286.31,507.73L1283.98,504.865L1281.67,501.996L1279.39,499.123L1277.13,496.248L1274.91,493.368L1272.71,490.484L1270.54,487.597L1268.39,484.705L1266.27,481.81L1264.18,478.91L1262.12,476.005L1260.08,473.097L1258.07,470.184L1256.09,467.266L1254.14,464.343L1252.21,461.415L1250.31,458.483L1248.44,455.546L1246.6,452.602L1244.78,449.654L1242.99,446.7L1241.23,443.742L1239.5,440.777L1237.79,437.807L1236.11,434.831L1234.46,431.849L1232.84,428.862L1231.25,425.87L1229.68,422.87L1228.14,419.864L1226.63,416.853L1225.15,413.835L1223.7,410.812L1222.28,407.782L1220.88,404.747L1219.52,401.705L1218.18,398.655L1216.88,395.601L1215.6,392.541L1214.35,389.474L1213.13,386.4L1211.94,383.321L1210.79,380.236L1209.66,377.145L1208.56,374.048L1207.49,370.944L1206.46,367.835L1205.45,364.72L1204.48,361.601L1203.53,358.476L1202.62,355.344L1201.74,352.208L1200.89,349.068L1200.07,345.922L1199.28,342.773L1198.53,339.619L1197.81,336.459L1197.12,333.297L1196.46,330.131L1195.84,326.962L1195.25,323.789L1194.69,320.613L1194.16,317.435L1193.67,314.256L1193.21,311.072L1192.79,307.888L1192.4,304.705L1192.04,301.519L1191.71,298.332L1191.42,295.145L1191.17,291.959L1190.94,288.774L1190.75,285.59L1190.6,282.406L1190.48,279.225L1190.39,276.045L1190.34,272.869L1190.32,269.695L1190.33,266.525L1190.38,263.36L1190.46,260.198L1190.58,257.042L1190.72,253.89L1190.9,250.744L1191.12,247.605L1191.37,244.471L1191.65,241.345L1191.96,238.225L1192.31,235.114L1192.69,232.012L1193.1,228.917L1193.54,225.829L1194.02,222.753L1194.53,219.687L1195.06,216.63L1195.63,213.584L1196.23,210.547L1196.87,207.522L1197.53,204.509L1198.22,201.507L1198.94,198.516L1199.69,195.539L1200.47,192.572L1201.28,189.619L1202.11,186.68L1202.98,183.753L1203.87,180.839L1204.79,177.939L1205.74,175.053L1206.72,172.181L1207.72,169.322L1208.75,166.478L1209.8,163.648L1210.88,160.832L1211.99,158.032L1213.12,155.245L1214.27,152.474L1215.45,149.716L1216.66,146.975L1217.89,144.248L1219.14,141.535L1220.41,138.838L1221.71,136.156L1223.03,133.489L1224.37,130.836L1225.74,128.198L1227.13,125.577L1228.53,122.969L1229.96,120.376L1231.41,117.798L1232.89,115.235L1234.38,112.687L1235.89,110.154L1237.42,107.635L1238.97,105.131L1240.55,102.64L1242.14,100.165L1243.75,97.704L1245.37,95.258L1247.02,92.825L1248.69,90.406L1250.37,88.001L1252.07,85.611L1253.79,83.233L1255.53,80.87L1257.29,78.52L1259.06,76.184L1260.85,73.861L1262.65,71.551L1264.48,69.255L1266.32,66.971L1268.17,64.7L1270.05,62.443L1271.94,60.198L1273.84,57.964L1275.76,55.745L1277.7,53.537L1279.65,51.342L1281.62,49.158L1283.6,46.986L1285.6,44.827L1287.61,42.68L1289.64,40.544L1291.69,38.42L1293.75,36.307L1295.82,34.206L1297.9,32.115L1300.01,30.036L1302.12,27.969L1304.26,25.912L1306.4,23.866L1308.56,21.831L1310.73,19.806L1312.92,17.793L1315.12,15.789L1317.33,13.796L1319.56,11.814L1321.8,9.842L1324.06,7.879L1326.33,5.927L1328.61,3.985L1330.9,2.053L1333.21,0.13L1335.53,-1.782L1337.87,-3.685L1340.22,-5.579L1342.58,-7.463L1344.95,-9.337L1347.34,-11.202L1349.73,-13.058L1352.14,-14.904L1354.57,-16.742L1357,-18.57L1359.45,-20.389L1361.91,-22.199L1364.39,-24.001L1366.87,-25.793L1369.37,-27.577L1371.88,-29.352L1374.4,-31.118L1376.93,-32.876L1379.48,-34.624L1382.03,-36.365L1384.6,-38.097L1387.18,-39.821L1389.78,-41.536L1392.38,-43.243L1394.99,-44.942L1397.62,-46.632L1400.26,-48.315L1402.91,-49.988L1405.57,-51.655L1408.24,-53.313L1410.92,-54.963L1413.62,-56.604L1416.32,-58.238L1419.04,-59.865L1421.77,-61.483L1424.5,-63.093L1427.25,-64.696L1430.01,-66.291L1432.78,-67.878L1435.56,-69.457L1438.36,-71.029L1441.16,-72.593L1443.97,-74.15L1446.79,-75.699L1449.63,-77.24L1452.47,-78.774L1455.32,-80.3L1458.19,-81.819L1461.06,-83.33L1463.94,-84.834L1466.89,-86.359L1472.66,-89.301L1478.51,-92.243L1484.41,-95.155L1490.34,-98.039L1496.32,-100.893L1502.33,-103.719L1508.37,-106.516L1514.45,-109.284L1520.57,-112.024L1526.73,-114.735L1532.92,-117.419L1539.14,-120.074L1545.4,-122.701L1551.69,-125.3L1558.02,-127.872L1564.37,-130.415L1570.76,-132.931L1577.18,-135.418L1583.64,-137.878L1590.12,-140.311L1596.63,-142.716L1603.18,-145.093L1609.75,-147.443L1616.35,-149.765L1622.98,-152.06L1629.63,-154.327L1636.32,-156.566L1643.03,-158.779L1649.76,-160.963L1656.52,-163.121L1663.31,-165.251L1670.12,-167.353L1676.95,-169.428L1683.81,-171.475L1690.69,-173.495L1697.6,-175.488L1704.52,-177.453L1711.47,-179.39L1718.44,-181.3L1725.43,-183.183L1732.43,-185.038L1739.46,-186.865L1746.51,-188.664L1753.57,-190.437L1760.66,-192.181L1767.76,-193.897L1774.87,-195.586L1782,-197.247L1789.15,-198.88L1796.31,-200.485L1803.49,-202.063L1810.68,-203.612L1817.89,-205.134L1825.11,-206.627L1832.34,-208.092L1839.58,-209.53L1846.83,-210.939L1854.1,-212.32L1861.37,-213.672L1868.65,-214.996L1875.95,-216.292L1883.25,-217.56L1890.56,-218.798L1897.88,-220.009L1905.2,-221.191L1912.53,-222.344L1919.87,-223.468L1927.21,-224.564L1934.56,-225.631L1941.91,-226.668L1949.26,-227.677L1956.62,-228.657L1963.98,-229.608L1971.34,-230.53L1978.71,-231.422L1986.07,-232.286L1993.44,-233.119L2000.81,-233.924L2008.17,-234.699L2015.54,-235.444L2022.9,-236.16L2030.26,-236.846L2037.62,-237.502L2044.97,-238.129L2052.32,-238.725L2059.67,-239.291L2067.01,-239.828L2074.35,-240.334L2081.68,-240.81L2089,-241.256L2096.32,-241.671L2103.63,-242.056L2110.93,-242.41L2118.22,-242.733L2125.51,-243.026L2132.78,-243.288L2140.04,-243.519L2147.3,-243.719L2154.54,-243.888L2161.77,-244.026L2168.99,-244.132L2176.19,-244.207L2183.38,-244.251L2190.56,-244.263L2197.72,-244.243Z" style="fill:white;"/>
    </g>
</svg>
